<svg width="24" height="21" viewBox="0 0 24 21" fill="none" xmlns="http://www.w3.org/2000/svg">
<path fill-rule="evenodd" clip-rule="evenodd" d="M24 10.5C24 10.1022 23.842 9.72079 23.5607 9.43953C23.2794 9.15828 22.8979 9.00027 22.5002 9.00027H5.12311L11.5634 2.56343C11.845 2.28182 12.0032 1.89988 12.0032 1.50162C12.0032 1.10337 11.845 0.721425 11.5634 0.439816C11.2818 0.158207 10.8998 0 10.5015 0C10.1032 0 9.72125 0.158207 9.43963 0.439816L0.44063 9.43819C0.300957 9.5775 0.190142 9.743 0.114531 9.9252C0.0389194 10.1074 0 10.3027 0 10.5C0 10.6973 0.0389194 10.8926 0.114531 11.0748C0.190142 11.257 0.300957 11.4225 0.44063 11.5618L9.43963 20.5602C9.72125 20.8418 10.1032 21 10.5015 21C10.8998 21 11.2818 20.8418 11.5634 20.5602C11.845 20.2786 12.0032 19.8966 12.0032 19.4984C12.0032 19.1001 11.845 18.7182 11.5634 18.4366L5.12311 11.9997H22.5002C22.8979 11.9997 23.2794 11.8417 23.5607 11.5605C23.842 11.2792 24 10.8978 24 10.5Z" fill="black"/>
</svg>
